# xmcd
#
# Track frame offsets: 
#        150
#        16743
#        49961
#        76125
#        83925
#        101943
#        115331
#        127987
#        129124
#        146400
#        176437
#        190411
#        194927
#        207563
#
# Disc length: 2842 seconds
#
# Revision: 1
# Processed by: cddbd v1.5.2PL0 Copyright (c) Steve Scherf et al.
# Submitted via: ExactAudioCopy v0.99pb5
#
DISCID=c70b180e
DTITLE=Various Artist - Mr Bongo Latin Beats Boxset CD4 The Remixes
DYEAR=2009
DGENRE=Salsa
TTITLE0=I Didn't Want To Have To Do It (Ralfi  Pagan) - 4 Hero Bossa R
TTITLE0=eprise
TTITLE1=Feel Like Making Love (Ricardo Marrero) - Ashley Beedle Barrio
TTITLE1=Disco Remix
TTITLE2=O Elefante (Ray Barretto) - SHH Remix Dub
TTITLE3=A Si Pare (Don Barreto) - Sao Benitez Remix
TTITLE4=Espiritu Latino (Sao Benitez feat Mr.Hermano)
TTITLE5=Morris Park (Lenni Sesar) - Bonde Do Role Instrumental Um
TTITLE6=Morris Park 2 (Lenni Sesar) - Bonde Do Role Vocal Remix Dois
TTITLE7=Amor Sincero (Don Aspiazu& The Havana Casino Orchestra) - Sao 
TTITLE7=Benitez Remix
TTITLE8=The Click (Fania All-Stars) - Kashmeer Bros Remix
TTITLE9=Didn't Want To Do It (Ralfi Pagan) - 4 Hero Dub
TTITLE10=Wata Wasuri (Tito Puente) - Gilles Patterson reedit
TTITLE11=Montuno - Utsumi
TTITLE12=Morris Park (Lenni Sesar) - Bonde Do Role Instrumental Dois
TTITLE13=Cielito Lindo - Batida do Corpo
EXTD=YEAR: 2009
EXTT0=
EXTT1=
EXTT2=
EXTT3=
EXTT4=
EXTT5=
EXTT6=
EXTT7=
EXTT8=
EXTT9=
EXTT10=
EXTT11=
EXTT12=
EXTT13=
PLAYORDER=
